<?xml version="1.0" ?>
<!DOCTYPE svg  PUBLIC '-//W3C//DTD SVG 1.1//EN'  'http://www.w3.org/Graphics/SVG/1.1/DTD/svg11.dtd'>
<!-- Uploaded to: SVG Repo, www.svgrepo.com, Generator: SVG Repo Mixer Tools -->
<svg width="800px" height="800px" viewBox="0 0 512 512" enable-background="new 0 0 512 512" id="Layer_1" version="1.1" xml:space="preserve" xmlns="http://www.w3.org/2000/svg" xmlns:xlink="http://www.w3.org/1999/xlink">
<g>
<g>
<path d="M356.242,386.687H155.758c-5.523,0-10-4.478-10-10V100.78c0-5.522,4.477-10,10-10h200.484    c5.523,0,10,4.478,10,10v275.906C366.242,382.209,361.765,386.687,356.242,386.687z M165.758,366.687h180.484V110.78H165.758    V366.687z" fill="#444B54"/>
</g>
<g>
<path d="M356.242,201.233H155.758c-5.523,0-10-4.478-10-10s4.477-10,10-10h200.484c5.523,0,10,4.478,10,10    S361.765,201.233,356.242,201.233z" fill="#444B54"/>
</g>
<g>
<path d="M356.242,299.9H155.758c-5.523,0-10-4.478-10-10s4.477-10,10-10h200.484c5.523,0,10,4.478,10,10    S361.765,299.9,356.242,299.9z" fill="#444B54"/>
</g>
<g>
<path d="M188.334,169.234c-5.523,0-10-4.478-10-10v-26.667c0-5.522,4.477-10,10-10s10,4.478,10,10v26.667    C198.334,164.757,193.857,169.234,188.334,169.234z" fill="#444B54"/>
</g>
<g>
<path d="M188.334,267.233c-5.523,0-10-4.478-10-10v-26.666c0-5.522,4.477-10,10-10s10,4.478,10,10v26.666    C198.334,262.756,193.857,267.233,188.334,267.233z" fill="#444B54"/>
</g>
<g>
<path d="M188.334,357.899c-5.523,0-10-4.478-10-10v-26.666c0-5.522,4.477-10,10-10s10,4.478,10,10v26.666    C198.334,353.422,193.857,357.899,188.334,357.899z" fill="#444B54"/>
</g>
<g>
<path d="M155.758,421.22c-5.523,0-10-4.478-10-10v-34.533c0-5.522,4.477-10,10-10s10,4.478,10,10v34.533    C165.758,416.742,161.281,421.22,155.758,421.22z" fill="#444B54"/>
</g>
<g>
<path d="M356.242,421.22c-5.523,0-10-4.478-10-10v-34.533c0-5.522,4.477-10,10-10s10,4.478,10,10v34.533    C366.242,416.742,361.765,421.22,356.242,421.22z" fill="#444B54"/>
</g>
<g>
<rect fill="#65A0D6" height="275.906" width="200.484" x="155.758" y="100.78"/>
<path d="M356.242,386.687H155.758c-5.523,0-10-4.478-10-10V100.78c0-5.522,4.477-10,10-10h200.484    c5.523,0,10,4.478,10,10v275.906C366.242,382.209,361.765,386.687,356.242,386.687z M165.758,366.687h180.484V110.78H165.758    V366.687z" fill="#444B54"/>
</g>
<g>
<path d="M356.242,201.233H155.758c-5.523,0-10-4.478-10-10s4.477-10,10-10h200.484c5.523,0,10,4.478,10,10    S361.765,201.233,356.242,201.233z" fill="#444B54"/>
</g>
<g>
<path d="M356.242,299.9H155.758c-5.523,0-10-4.478-10-10s4.477-10,10-10h200.484c5.523,0,10,4.478,10,10    S361.765,299.9,356.242,299.9z" fill="#444B54"/>
</g>
<g>
<path d="M188.334,169.234c-5.523,0-10-4.478-10-10v-26.667c0-5.522,4.477-10,10-10s10,4.478,10,10v26.667    C198.334,164.757,193.857,169.234,188.334,169.234z" fill="#444B54"/>
</g>
<g>
<path d="M188.334,267.233c-5.523,0-10-4.478-10-10v-26.666c0-5.522,4.477-10,10-10s10,4.478,10,10v26.666    C198.334,262.756,193.857,267.233,188.334,267.233z" fill="#444B54"/>
</g>
<g>
<path d="M188.334,357.899c-5.523,0-10-4.478-10-10v-26.666c0-5.522,4.477-10,10-10s10,4.478,10,10v26.666    C198.334,353.422,193.857,357.899,188.334,357.899z" fill="#444B54"/>
</g>
<g>
<path d="M155.758,421.22c-5.523,0-10-4.478-10-10v-34.533c0-5.522,4.477-10,10-10s10,4.478,10,10v34.533    C165.758,416.742,161.281,421.22,155.758,421.22z" fill="#444B54"/>
</g>
<g>
<path d="M356.242,421.22c-5.523,0-10-4.478-10-10v-34.533c0-5.522,4.477-10,10-10s10,4.478,10,10v34.533    C366.242,416.742,361.765,421.22,356.242,421.22z" fill="#444B54"/>
</g>
</g>
</svg>