<?xml version="1.0" ?><!-- Uploaded to: SVG Repo, www.svgrepo.com, Generator: SVG Repo Mixer Tools -->
<svg width="800px" height="800px" viewBox="0 0 24 24" fill="none" xmlns="http://www.w3.org/2000/svg"><path d="M3.58959 17.5L3.69219 17.272H3.69219L3.58959 17.5ZM3.0881 17L3.31608 16.8974L3.0881 17ZM20.9119 17L20.6839 16.8974L20.6839 16.8974L20.9119 17ZM20.4104 17.5L20.3078 17.272L20.4104 17.5ZM20.8231 16.0264L20.9257 15.7985L20.8231 16.0264ZM20.9736 16.1769L21.2015 16.0743L20.9736 16.1769ZM3.17688 16.0264L3.07427 15.7985H3.07427L3.17688 16.0264ZM3.02643 16.1769L2.79846 16.0743L3.02643 16.1769ZM4.73077 16.25C4.86884 16.25 4.98077 16.1381 4.98077 16C4.98077 15.8619 4.86884 15.75 4.73077 15.75V16.25ZM18.4827 14.8907C18.4224 15.0149 18.4741 15.1645 18.5983 15.2248C18.7225 15.2852 18.8721 15.2335 18.9324 15.1093L18.4827 14.8907ZM19.4615 17.34H4.53846V17.84H19.4615V17.34ZM4.53846 17.34C4.28422 17.34 4.10663 17.3394 3.96824 17.3288C3.83229 17.3184 3.75286 17.2993 3.69219 17.272L3.48698 17.728C3.62206 17.7888 3.76603 17.8147 3.93006 17.8273C4.09164 17.8397 4.29062 17.84 4.53846 17.84V17.34ZM2.75 16.4615C2.75 16.4838 2.75001 16.5796 2.76237 16.6978C2.7742 16.811 2.79947 16.9678 2.86013 17.1026L3.31608 16.8974C3.28863 16.8364 3.26985 16.7433 3.25966 16.6458C3.24999 16.5533 3.25 16.4778 3.25 16.4615H2.75ZM3.69219 17.272C3.52436 17.1965 3.39097 17.0638 3.31608 16.8974L2.86013 17.1026C2.9858 17.3818 3.20918 17.6029 3.48698 17.728L3.69219 17.272ZM20.75 16.4615C20.75 16.4778 20.75 16.5533 20.7403 16.6458C20.7302 16.7433 20.7114 16.8364 20.6839 16.8974L21.1399 17.1026C21.2005 16.9678 21.2258 16.811 21.2376 16.6978C21.25 16.5796 21.25 16.4838 21.25 16.4615H20.75ZM19.4615 17.84C19.7094 17.84 19.9084 17.8397 20.0699 17.8273C20.234 17.8147 20.3779 17.7888 20.513 17.728L20.3078 17.272C20.2471 17.2993 20.1677 17.3184 20.0318 17.3288C19.8934 17.3394 19.7158 17.34 19.4615 17.34V17.84ZM20.6839 16.8974C20.609 17.0638 20.4756 17.1965 20.3078 17.272L20.513 17.728C20.7908 17.6029 21.0142 17.3818 21.1399 17.1026L20.6839 16.8974ZM20.5385 16.25C20.6175 16.25 20.6632 16.2502 20.6969 16.2526C20.7282 16.2549 20.7289 16.2582 20.7205 16.2544L20.9257 15.7985C20.8586 15.7682 20.7923 15.7583 20.7336 15.754C20.6773 15.7498 20.6101 15.75 20.5385 15.75V16.25ZM21.25 16.4615C21.25 16.3899 21.2502 16.3227 21.246 16.2664C21.2417 16.2077 21.2318 16.1414 21.2015 16.0743L20.7456 16.2795C20.7418 16.2711 20.7451 16.2718 20.7474 16.3031C20.7498 16.3368 20.75 16.3825 20.75 16.4615H21.25ZM20.7205 16.2544C20.7317 16.2594 20.7406 16.2683 20.7456 16.2795L21.2015 16.0743C21.1464 15.9517 21.0483 15.8536 20.9257 15.7985L20.7205 16.2544ZM3.46154 15.75C3.38992 15.75 3.32271 15.7498 3.26644 15.754C3.20767 15.7583 3.14141 15.7682 3.07427 15.7985L3.27948 16.2544C3.27107 16.2582 3.27182 16.2549 3.30305 16.2526C3.33677 16.2502 3.38254 16.25 3.46154 16.25V15.75ZM3.25 16.4615C3.25 16.3825 3.25016 16.3368 3.25263 16.3031C3.25493 16.2718 3.25819 16.2711 3.25441 16.2795L2.79846 16.0743C2.76824 16.1414 2.75829 16.2077 2.75397 16.2664C2.74984 16.3227 2.75 16.3899 2.75 16.4615H3.25ZM3.07427 15.7985C2.95172 15.8536 2.85361 15.9517 2.79846 16.0743L3.25441 16.2795C3.25942 16.2683 3.26834 16.2594 3.27948 16.2544L3.07427 15.7985ZM3.46154 16.25H4.73077V15.75H3.46154V16.25ZM11 5.25H13V4.75H11V5.25ZM18.75 11V12H19.25V11H18.75ZM5.25 12V11H4.75V12H5.25ZM9 15.75C8.05012 15.75 7.36287 15.7495 6.83877 15.679C6.32186 15.6095 6.00126 15.4761 5.76256 15.2374L5.40901 15.591C5.7561 15.9381 6.19979 16.0976 6.77214 16.1745C7.3373 16.2505 8.06426 16.25 9 16.25V15.75ZM4.75 12C4.75 12.9357 4.74947 13.6627 4.82545 14.2279C4.9024 14.8002 5.06192 15.2439 5.40901 15.591L5.76256 15.2374C5.52386 14.9987 5.39049 14.6781 5.32099 14.1612C5.25053 13.6371 5.25 12.9499 5.25 12H4.75ZM13 5.25C14.4213 5.25 15.4621 5.25053 16.2585 5.35761C17.0477 5.46371 17.5594 5.67031 17.9445 6.05546L18.2981 5.7019C17.8046 5.20837 17.1698 4.97563 16.3251 4.86206C15.4877 4.74947 14.4071 4.75 13 4.75V5.25ZM19.25 11C19.25 9.59285 19.2505 8.51234 19.1379 7.67487C19.0244 6.83021 18.7916 6.19544 18.2981 5.7019L17.9445 6.05546C18.3297 6.4406 18.5363 6.95228 18.6424 7.7415C18.7495 8.53791 18.75 9.57872 18.75 11H19.25ZM11 4.75C9.59285 4.75 8.51234 4.74947 7.67487 4.86206C6.83021 4.97563 6.19544 5.20837 5.7019 5.7019L6.05546 6.05546C6.4406 5.67031 6.95228 5.46371 7.7415 5.35761C8.53791 5.25053 9.57872 5.25 11 5.25V4.75ZM5.25 11C5.25 9.57872 5.25053 8.53791 5.35761 7.7415C5.46371 6.95228 5.67031 6.4406 6.05546 6.05546L5.7019 5.7019C5.20837 6.19544 4.97563 6.83021 4.86206 7.67487C4.74947 8.51234 4.75 9.59285 4.75 11H5.25ZM9 16.25H20.5385V15.75H9V16.25ZM18.75 12C18.75 12.7514 18.7498 13.3403 18.7141 13.8166C18.6784 14.2935 18.6083 14.6323 18.4827 14.8907L18.9324 15.1093C19.0992 14.7661 19.1754 14.3528 19.2127 13.854C19.2502 13.3548 19.25 12.7445 19.25 12H18.75Z" fill="#1A6A83"/><circle cx="12.025" cy="5.625" fill="#207284" r="0.125"/><rect fill="#00FFB0" height="9" rx="2" width="12" x="6.5" y="6.25"/><path d="M10 16.5C10 16.6381 10.1119 16.75 10.25 16.75H13.75C13.8881 16.75 14 16.6381 14 16.5M10 15H14C15.8856 15 16.8284 15 17.4142 14.4142C18 13.8284 18 12.8856 18 11V10C18 8.11438 18 7.17157 17.4142 6.58579C16.8284 6 15.8856 6 14 6H10C8.11438 6 7.17157 6 6.58579 6.58579C6 7.17157 6 8.11438 6 10V11C6 12.8856 6 13.8284 6.58579 14.4142C7.17157 15 8.11438 15 10 15Z" stroke="#1A6A83" stroke-width="0.2"/></svg>