<?xml version="1.0" encoding="iso-8859-1"?>
<!-- Uploaded to: SVG Repo, www.svgrepo.com, Generator: SVG Repo Mixer Tools -->
<svg fill="#000000" height="800px" width="800px" version="1.1" id="Layer_1" xmlns="http://www.w3.org/2000/svg" xmlns:xlink="http://www.w3.org/1999/xlink" 
	 viewBox="0 0 512.001 512.001" xml:space="preserve">
<g>
	<g>
		<circle cx="411.397" cy="388.282" r="8.17"/>
	</g>
</g>
<g>
	<g>
		<path d="M238.667,134.68l-76.5-76.502c-5.929-5.928-12.764-10.762-20.313-14.367L58.446,3.979
			c-15.589-7.44-34.269-4.233-46.485,7.982C-0.255,24.176-3.463,42.857,3.979,58.448l39.831,83.405
			c3.604,7.55,8.438,14.386,14.367,20.315l30.809,30.809c0.001,0,0.001,0.001,0.002,0.002c0.001,0.001,0.001,0.001,0.002,0.002
			l45.687,45.686c1.595,1.595,3.686,2.393,5.777,2.393c2.091,0,4.182-0.797,5.777-2.393c3.191-3.191,3.191-8.364,0-11.554
			l-39.91-39.911l80.881-80.881l39.911,39.912c3.191,3.191,8.364,3.191,11.554,0C241.858,143.043,241.858,137.87,238.667,134.68z
			 M94.768,175.649L75.51,156.391l63.549-63.549c3.191-3.191,3.191-8.364,0-11.554c-3.191-3.191-8.364-3.191-11.554,0
			l-63.128,63.128c-2.244-2.998-4.197-6.204-5.819-9.603L18.726,51.407c-4.466-9.353-2.54-20.562,4.789-27.892
			c7.33-7.329,18.539-9.255,27.891-4.79l83.408,39.831c5.871,2.803,11.187,6.563,15.8,11.176l25.035,25.035L94.768,175.649z"/>
	</g>
</g>
<g>
	<g>
		<path d="M509.606,405.618L377.321,273.332c-3.191-3.191-8.364-3.191-11.554,0c-3.191,3.191-3.191,8.364,0,11.554l126.509,126.508
			l-80.882,80.882L284.886,365.767c-3.191-3.191-8.364-3.191-11.554,0c-3.191,3.191-3.191,8.364,0,11.554l132.286,132.286
			c1.532,1.533,3.61,2.393,5.777,2.393s4.245-0.861,5.777-2.393l92.436-92.436c1.533-1.532,2.393-3.61,2.393-5.777
			S511.139,407.149,509.606,405.618z"/>
	</g>
</g>
<g>
	<g>
		<path d="M500.039,11.962C492.327,4.248,482.071,0,471.162,0c-6.067,0-12.156,1.376-17.611,3.979l-83.405,39.831
			c-7.551,3.605-14.387,8.438-20.315,14.367L2.393,405.618c-3.191,3.191-3.191,8.364,0,11.554l92.436,92.436
			c1.595,1.595,3.686,2.393,5.777,2.393c2.09,0,4.182-0.797,5.777-2.393l347.439-347.439c5.929-5.928,10.763-12.764,14.367-20.313
			l39.833-83.407C515.462,42.858,512.253,24.178,500.039,11.962z M100.606,492.276l-80.882-80.882l305.074-305.072l80.882,80.882
			L100.606,492.276z M493.276,51.408l-39.833,83.408c-2.802,5.872-6.562,11.187-11.175,15.799l-25.035,25.035l-80.883-80.883
			l19.258-19.258l63.549,63.549c1.595,1.595,3.686,2.393,5.777,2.393c2.09,0,4.182-0.797,5.777-2.393
			c3.191-3.191,3.191-8.364,0-11.554l-63.128-63.128c2.999-2.243,6.205-4.196,9.604-5.818l83.406-39.831
			c3.268-1.56,6.923-2.385,10.57-2.385c6.544,0,12.697,2.548,17.323,7.174C495.816,30.847,497.74,42.055,493.276,51.408z"/>
	</g>
</g>
<g>
	<g>
		<circle cx="100.602" cy="388.282" r="8.17"/>
	</g>
</g>
<g>
	<g>
		<circle cx="100.602" cy="434.503" r="8.17"/>
	</g>
</g>
</svg>