<?xml version="1.0" encoding="iso-8859-1"?>
<!-- Uploaded to: SVG Repo, www.svgrepo.com, Generator: SVG Repo Mixer Tools -->
<svg version="1.1" id="Layer_1" xmlns="http://www.w3.org/2000/svg" xmlns:xlink="http://www.w3.org/1999/xlink" 
	 viewBox="0 0 512.001 512.001" xml:space="preserve">
<rect x="313.919" y="84.978" style="fill:#3D7A94;" width="57.919" height="98.462"/>
<path style="fill:#0E4675;" d="M290.752,160.272v318.552c0,28.789,104.253,28.789,104.253,0V160.272L290.752,160.272
	L290.752,160.272z"/>
<path style="fill:#3D7A94;" d="M116.996,264.526v214.299c0,28.789,104.253,28.789,104.253,0V264.526L116.996,264.526
	L116.996,264.526z"/>
<g>
	<path style="fill:#000030;" d="M395.005,148.689h-11.584v-14.48c6.398,0,11.584-5.187,11.584-11.584s-5.186-11.584-11.584-11.584
		V84.978c0-6.397-5.186-11.584-11.584-11.584h-57.919c-6.398,0-11.584,5.186-11.584,11.584v26.063
		c-6.398,0-11.584,5.187-11.584,11.584s5.186,11.584,11.584,11.584v14.48h-11.584c-6.398,0-11.584,5.187-11.584,11.584v318.552
		c0,24.487,34.32,33.176,63.71,33.176s63.71-8.689,63.71-33.176V160.272C406.589,153.876,401.403,148.689,395.005,148.689z
		 M325.503,96.562h34.751v14.48h-34.751V96.562z M325.503,134.209h34.751v14.48h-34.751V134.209z M342.878,488.833
		c-26.114,0-39.59-7.187-40.543-10.008V171.856h81.086l0.008,306.931C382.468,481.646,368.993,488.833,342.878,488.833z"/>
	<path style="fill:#000030;" d="M221.249,252.942h-40.543V143.476h23.167c6.398,0,11.584-5.187,11.584-11.584
		s-5.186-11.584-11.584-11.584h-23.167v-6.91h17.376c6.398,0,11.584-5.187,11.584-11.584s-5.186-11.584-11.584-11.584h-17.376v-6.91
		h11.584c6.398,0,11.584-5.187,11.584-11.584c0-6.397-5.186-11.584-11.584-11.584h-11.584v-6.911h5.792
		c6.398,0,11.584-5.187,11.584-11.584s-5.186-11.584-11.584-11.584h-5.792v-6.909c6.398,0,11.584-5.186,11.584-11.584
		S187.104,0,180.706,0h-23.167c-6.398,0-11.584,5.186-11.584,11.584s5.186,11.584,11.584,11.584v6.91h-5.792
		c-6.398,0-11.584,5.187-11.584,11.584s5.186,11.584,11.584,11.584h5.792v6.911h-11.584c-6.398,0-11.584,5.187-11.584,11.584
		c0,6.397,5.186,11.584,11.584,11.584h11.584v6.91h-17.376c-6.398,0-11.584,5.187-11.584,11.584c0,6.397,5.186,11.584,11.584,11.584
		h17.376v6.91h-23.167c-6.398,0-11.584,5.187-11.584,11.584s5.186,11.584,11.584,11.584h23.167v109.466h-40.543
		c-6.398,0-11.584,5.187-11.584,11.584v214.299c0,24.487,34.32,33.176,63.71,33.176s63.71-8.689,63.71-33.176V264.527
		C232.833,258.129,227.647,252.942,221.249,252.942z M169.123,488.833c-26.114,0-39.59-7.187-40.543-10.008V276.109h81.086
		l0.008,202.678C208.712,481.646,195.237,488.833,169.123,488.833z"/>
</g>
</svg>