<?xml version="1.0" ?><!-- Uploaded to: SVG Repo, www.svgrepo.com, Generator: SVG Repo Mixer Tools -->
<svg width="800px" height="800px" viewBox="0 0 24 24" fill="none" xmlns="http://www.w3.org/2000/svg"><circle cx="12" cy="15" fill="#207284" r="0.5"/><path d="M14 15.75C13.8619 15.75 13.75 15.8619 13.75 16C13.75 16.1381 13.8619 16.25 14 16.25V15.75ZM13.3959 17.4847L13.1544 17.5491L13.3959 17.4847ZM12.841 16.207L12.6886 16.4053H12.6886L12.841 16.207ZM15.75 20C15.8881 20 16 19.8881 16 19.75C16 19.6119 15.8881 19.5 15.75 19.5V20ZM8 4.25H16V3.75H8V4.25ZM5.25 14V6.5H4.75V14H5.25ZM8 15.75C7.00899 15.75 6.3197 15.6238 5.8825 15.3505C5.47238 15.0942 5.25 14.6856 5.25 14H4.75C4.75 14.8144 5.02762 15.4058 5.6175 15.7745C6.1803 16.1262 6.99101 16.25 8 16.25V15.75ZM16 4.25C16.9938 4.25 17.6702 4.37765 18.1 4.7C18.5103 5.00776 18.75 5.53791 18.75 6.5H19.25C19.25 5.46209 18.9897 4.74224 18.4 4.3C17.8298 3.87235 17.0062 3.75 16 3.75V4.25ZM8 3.75C6.99383 3.75 6.1702 3.87235 5.6 4.3C5.01034 4.74224 4.75 5.46209 4.75 6.5H5.25C5.25 5.53791 5.48966 5.00776 5.9 4.7C6.3298 4.37765 7.00617 4.25 8 4.25V3.75ZM18.75 14C18.75 14.6856 18.5276 15.0942 18.1175 15.3505C17.6803 15.6238 16.991 15.75 16 15.75V16.25C17.009 16.25 17.8197 16.1262 18.3825 15.7745C18.9724 15.4058 19.25 14.8144 19.25 14H18.75ZM18.75 6.5V14H19.25V6.5H18.75ZM11.4634 15.75H8V16.25H11.4634V15.75ZM16 15.75H14V16.25H16V15.75ZM13.1544 17.5491L13.5605 19.0721L14.0436 18.9432L13.6375 17.4203L13.1544 17.5491ZM11.4634 16.25C11.8388 16.25 12.0985 16.2504 12.2988 16.2741C12.4924 16.2971 12.6028 16.3393 12.6886 16.4053L12.9933 16.0088C12.8097 15.8677 12.6007 15.8064 12.3576 15.7776C12.1211 15.7496 11.8268 15.75 11.4634 15.75V16.25ZM13.6375 17.4203C13.5439 17.0692 13.4684 16.7847 13.3804 16.5634C13.2899 16.336 13.1769 16.1498 12.9933 16.0088L12.6886 16.4053C12.7745 16.4712 12.8437 16.567 12.9158 16.7482C12.9903 16.9356 13.0576 17.1864 13.1544 17.5491L13.6375 17.4203ZM14.7683 20H15.75V19.5H14.7683V20ZM13.5605 19.0721C13.7064 19.6193 14.202 20 14.7683 20V19.5C14.4285 19.5 14.1312 19.2716 14.0436 18.9432L13.5605 19.0721Z" fill="#1A6A83"/><path d="M10.1707 18.9616L9.92631 18.9087L10.1707 18.9616ZM10.8396 17.0529C10.8688 16.9179 10.7831 16.7849 10.6481 16.7557C10.5132 16.7264 10.3801 16.8122 10.3509 16.9471L10.8396 17.0529ZM8.25 19.5C8.11193 19.5 8 19.6119 8 19.75C8 19.8881 8.11193 20 8.25 20V19.5ZM8.5 19.5C8.36193 19.5 8.25 19.6119 8.25 19.75C8.25 19.8881 8.36193 20 8.5 20V19.5ZM13 20C13.1381 20 13.25 19.8881 13.25 19.75C13.25 19.6119 13.1381 19.5 13 19.5V20ZM10.415 19.0144L10.8396 17.0529L10.3509 16.9471L9.92631 18.9087L10.415 19.0144ZM8.25 20H9.19329V19.5H8.25V20ZM9.92631 18.9087C9.85162 19.2537 9.54636 19.5 9.19329 19.5V20C9.78174 20 10.2905 19.5896 10.415 19.0144L9.92631 18.9087ZM8.5 20H13V19.5H8.5V20Z" fill="#1A6A83"/><rect fill="#00FFB0" height="9" rx="2" width="12" x="6.5" y="5.25"/><path d="M6 8C6 6.58579 6 5.87868 6.43934 5.43934C6.87868 5 7.58579 5 9 5H15C16.4142 5 17.1213 5 17.5607 5.43934C18 5.87868 18 6.58579 18 8V11C18 12.4142 18 13.1213 17.5607 13.5607C17.1213 14 16.4142 14 15 14H9C7.58579 14 6.87868 14 6.43934 13.5607C6 13.1213 6 12.4142 6 11V8Z" stroke="#1A6A83" stroke-width="0.2"/></svg>