<?xml version="1.0" ?><!-- Uploaded to: SVG Repo, www.svgrepo.com, Generator: SVG Repo Mixer Tools -->
<svg width="800px" height="800px" viewBox="0 0 24 24" fill="none" xmlns="http://www.w3.org/2000/svg"><path d="M10 18H15C16.6569 18 18 16.6569 18 15V9C18 7.68703 17.1565 6.57105 15.9819 6.16437C15.46 5.98368 15 5.55228 15 5V4C15 2.89543 14.1046 2 13 2H11C9.89543 2 9 2.89543 9 4V5M14 6H9C7.34315 6 6 7.34315 6 9V15C6 16.313 6.84347 17.4289 8.01811 17.8356C8.54 18.0163 9 18.4477 9 19V20C9 21.1046 9.89543 22 11 22H13C14.1046 22 15 21.1046 15 20V19" stroke="#1A6A83" stroke-linecap="round" stroke-width="0.5"/><path d="M7.5 11.25C7.5 9.36438 7.5 8.42157 8.08579 7.83579C8.67157 7.25 9.61438 7.25 11.5 7.25H13.5C15.3856 7.25 16.3284 7.25 16.9142 7.83579C17.5 8.42157 17.5 9.36438 17.5 11.25V13.25C17.5 15.1356 17.5 16.0784 16.9142 16.6642C16.3284 17.25 15.3856 17.25 13.5 17.25H11.5C9.61438 17.25 8.67157 17.25 8.08579 16.6642C7.5 16.0784 7.5 15.1356 7.5 13.25V11.25Z" fill="#00FFB0"/><path d="M7 11C7 9.11438 7 8.17157 7.58579 7.58579C8.17157 7 9.11438 7 11 7H13C14.8856 7 15.8284 7 16.4142 7.58579C17 8.17157 17 9.11438 17 11V13C17 14.8856 17 15.8284 16.4142 16.4142C15.8284 17 14.8856 17 13 17H11C9.11438 17 8.17157 17 7.58579 16.4142C7 15.8284 7 14.8856 7 13V11Z" stroke="#1A6A83" stroke-width="0.2"/><path clip-rule="evenodd" d="M18 13L18 11L18.5 11C18.7761 11 19 11.2239 19 11.5L19 12.5C19 12.7761 18.7761 13 18.5 13H18Z" fill="#1A6A83" fill-rule="evenodd"/></svg>